# xmcd
#
# Track frame offsets:
#	150
#	17757
#	35102
#	51601
#	68293
#	87901
#	102466
#	122007
#	137949
#	155518
#	168661
#	184374
#	204232
#	220732
#	235625
#	252133
#	266580
#	280295
#
# Disc length: 3989 seconds
#
# Revision: 0
# Processed by: cddbd v1.5.1PL0 Copyright (c) Steve Scherf et al.
# Submitted via: audiograbber 1.82.02
#
DISCID=090f9312
DTITLE=Kenny Rogers - His Greatest Hits
DYEAR=1900
DGENRE=
TTITLE0=Lady
TTITLE1=We've got Tonight (duet with Sheena Easton)
TTITLE2=Don't Fall in Love With a Dreamer
TTITLE3=Lucille
TTITLE4=Coward of the County
TTITLE5=Love the World Away
TTITLE6=Sweet Music Man
TTITLE7=The Gambler
TTITLE8=All My Life
TTITLE9=Love or Something Like It
TTITLE10=I Don't Need You
TTITLE11=Through the Years
TTITLE12=You Decorated my Life
TTITLE13=Share Your Love With Me
TTITLE14=Love Will Turn you Around
TTITLE15=Daytime Friends
TTITLE16=What are We doin' in Love (duet with Dottie West)
TTITLE17=She Believes in Me
EXTD=
EXTT0=
EXTT1=
EXTT2=
EXTT3=
EXTT4=
EXTT5=
EXTT6=
EXTT7=
EXTT8=
EXTT9=
EXTT10=
EXTT11=
EXTT12=
EXTT13=
EXTT14=
EXTT15=
EXTT16=
EXTT17=
PLAYORDER=
